<mxfile host="app.diagrams.net" modified="2024-07-10T12:33:19.009Z" agent="Mozilla/5.0 (Windows NT 10.0; Win64; x64) AppleWebKit/537.36 (KHTML, like Gecko) Chrome/126.0.0.0 Safari/537.36" etag="je713SJGqTdlpAiPFxz8" version="24.6.4" type="device">
  <diagram id="R2lEEEUBdFMjLlhIrx00" name="Page-1">
    <mxGraphModel dx="2350" dy="1846" grid="1" gridSize="10" guides="1" tooltips="1" connect="1" arrows="1" fold="1" page="1" pageScale="1" pageWidth="850" pageHeight="1100" math="0" shadow="0" extFonts="Permanent Marker^https://fonts.googleapis.com/css?family=Permanent+Marker">
      <root>
        <mxCell id="0" />
        <mxCell id="1" parent="0" />
        <mxCell id="YmvjijiLY2P1SuIOJziN-15" style="edgeStyle=orthogonalEdgeStyle;rounded=0;orthogonalLoop=1;jettySize=auto;html=1;exitX=0.5;exitY=0;exitDx=0;exitDy=0;entryX=0.5;entryY=1;entryDx=0;entryDy=0;" parent="1" source="YmvjijiLY2P1SuIOJziN-1" target="YmvjijiLY2P1SuIOJziN-4" edge="1">
          <mxGeometry relative="1" as="geometry" />
        </mxCell>
        <mxCell id="YmvjijiLY2P1SuIOJziN-16" style="edgeStyle=orthogonalEdgeStyle;rounded=0;orthogonalLoop=1;jettySize=auto;html=1;exitX=0;exitY=0.5;exitDx=0;exitDy=0;entryX=1;entryY=0.5;entryDx=0;entryDy=0;" parent="1" source="YmvjijiLY2P1SuIOJziN-1" target="YmvjijiLY2P1SuIOJziN-3" edge="1">
          <mxGeometry relative="1" as="geometry" />
        </mxCell>
        <mxCell id="YmvjijiLY2P1SuIOJziN-68" style="edgeStyle=orthogonalEdgeStyle;rounded=0;orthogonalLoop=1;jettySize=auto;html=1;exitX=1;exitY=0.5;exitDx=0;exitDy=0;entryX=0;entryY=0.5;entryDx=0;entryDy=0;shape=link;" parent="1" source="YmvjijiLY2P1SuIOJziN-1" target="YmvjijiLY2P1SuIOJziN-67" edge="1">
          <mxGeometry relative="1" as="geometry" />
        </mxCell>
        <mxCell id="YmvjijiLY2P1SuIOJziN-70" value="&lt;font style=&quot;font-size: 17px;&quot;&gt;M&lt;/font&gt;" style="edgeLabel;html=1;align=center;verticalAlign=middle;resizable=0;points=[];" parent="YmvjijiLY2P1SuIOJziN-68" vertex="1" connectable="0">
          <mxGeometry x="0.8" y="1" relative="1" as="geometry">
            <mxPoint x="6" y="1" as="offset" />
          </mxGeometry>
        </mxCell>
        <mxCell id="YmvjijiLY2P1SuIOJziN-79" style="edgeStyle=orthogonalEdgeStyle;rounded=0;orthogonalLoop=1;jettySize=auto;html=1;exitX=0.75;exitY=1;exitDx=0;exitDy=0;entryX=0;entryY=0.5;entryDx=0;entryDy=0;" parent="1" source="YmvjijiLY2P1SuIOJziN-1" target="YmvjijiLY2P1SuIOJziN-77" edge="1">
          <mxGeometry relative="1" as="geometry" />
        </mxCell>
        <mxCell id="YmvjijiLY2P1SuIOJziN-83" value="M" style="edgeLabel;html=1;align=center;verticalAlign=middle;resizable=0;points=[];" parent="YmvjijiLY2P1SuIOJziN-79" vertex="1" connectable="0">
          <mxGeometry x="0.8149" y="3" relative="1" as="geometry">
            <mxPoint as="offset" />
          </mxGeometry>
        </mxCell>
        <mxCell id="YmvjijiLY2P1SuIOJziN-113" style="edgeStyle=orthogonalEdgeStyle;rounded=0;orthogonalLoop=1;jettySize=auto;html=1;exitX=0;exitY=1;exitDx=0;exitDy=0;entryX=0.5;entryY=0;entryDx=0;entryDy=0;" parent="1" source="YmvjijiLY2P1SuIOJziN-1" target="YmvjijiLY2P1SuIOJziN-2" edge="1">
          <mxGeometry relative="1" as="geometry">
            <Array as="points">
              <mxPoint x="110" y="130" />
              <mxPoint x="110" y="120" />
              <mxPoint x="45" y="120" />
            </Array>
          </mxGeometry>
        </mxCell>
        <mxCell id="YmvjijiLY2P1SuIOJziN-115" style="edgeStyle=orthogonalEdgeStyle;rounded=0;orthogonalLoop=1;jettySize=auto;html=1;exitX=0.25;exitY=1;exitDx=0;exitDy=0;entryX=0.5;entryY=0;entryDx=0;entryDy=0;" parent="1" source="YmvjijiLY2P1SuIOJziN-1" target="YmvjijiLY2P1SuIOJziN-114" edge="1">
          <mxGeometry relative="1" as="geometry" />
        </mxCell>
        <mxCell id="YmvjijiLY2P1SuIOJziN-117" value="&lt;font style=&quot;font-size: 15px;&quot;&gt;1&lt;/font&gt;" style="edgeLabel;html=1;align=center;verticalAlign=middle;resizable=0;points=[];" parent="YmvjijiLY2P1SuIOJziN-115" vertex="1" connectable="0">
          <mxGeometry x="0.8476" y="-3" relative="1" as="geometry">
            <mxPoint x="3" y="4" as="offset" />
          </mxGeometry>
        </mxCell>
        <mxCell id="YmvjijiLY2P1SuIOJziN-128" style="edgeStyle=orthogonalEdgeStyle;rounded=0;orthogonalLoop=1;jettySize=auto;html=1;exitX=0.5;exitY=1;exitDx=0;exitDy=0;entryX=0.5;entryY=0;entryDx=0;entryDy=0;shape=link;" parent="1" source="YmvjijiLY2P1SuIOJziN-1" target="YmvjijiLY2P1SuIOJziN-127" edge="1">
          <mxGeometry relative="1" as="geometry">
            <Array as="points">
              <mxPoint x="180" y="260" />
              <mxPoint x="140" y="260" />
            </Array>
          </mxGeometry>
        </mxCell>
        <mxCell id="YmvjijiLY2P1SuIOJziN-132" value="1" style="edgeLabel;html=1;align=center;verticalAlign=middle;resizable=0;points=[];" parent="YmvjijiLY2P1SuIOJziN-128" vertex="1" connectable="0">
          <mxGeometry x="0.5728" y="4" relative="1" as="geometry">
            <mxPoint y="-14" as="offset" />
          </mxGeometry>
        </mxCell>
        <mxCell id="YmvjijiLY2P1SuIOJziN-1" value="Branch" style="whiteSpace=wrap;html=1;align=center;" parent="1" vertex="1">
          <mxGeometry x="130" y="90" width="100" height="40" as="geometry" />
        </mxCell>
        <mxCell id="YmvjijiLY2P1SuIOJziN-2" value="Code" style="ellipse;whiteSpace=wrap;html=1;align=center;fontStyle=4;" parent="1" vertex="1">
          <mxGeometry x="-5" y="130" width="100" height="40" as="geometry" />
        </mxCell>
        <mxCell id="YmvjijiLY2P1SuIOJziN-3" value="Name" style="ellipse;whiteSpace=wrap;html=1;align=center;" parent="1" vertex="1">
          <mxGeometry x="-20" y="60" width="100" height="40" as="geometry" />
        </mxCell>
        <mxCell id="YmvjijiLY2P1SuIOJziN-10" style="edgeStyle=orthogonalEdgeStyle;rounded=0;orthogonalLoop=1;jettySize=auto;html=1;exitX=1;exitY=0.5;exitDx=0;exitDy=0;entryX=0.5;entryY=1;entryDx=0;entryDy=0;" parent="1" source="YmvjijiLY2P1SuIOJziN-4" target="YmvjijiLY2P1SuIOJziN-9" edge="1">
          <mxGeometry relative="1" as="geometry" />
        </mxCell>
        <mxCell id="YmvjijiLY2P1SuIOJziN-11" style="edgeStyle=orthogonalEdgeStyle;rounded=0;orthogonalLoop=1;jettySize=auto;html=1;exitX=1;exitY=0;exitDx=0;exitDy=0;entryX=0.5;entryY=1;entryDx=0;entryDy=0;" parent="1" source="YmvjijiLY2P1SuIOJziN-4" target="YmvjijiLY2P1SuIOJziN-5" edge="1">
          <mxGeometry relative="1" as="geometry" />
        </mxCell>
        <mxCell id="YmvjijiLY2P1SuIOJziN-12" style="edgeStyle=orthogonalEdgeStyle;rounded=0;orthogonalLoop=1;jettySize=auto;html=1;exitX=0.5;exitY=0;exitDx=0;exitDy=0;entryX=0.5;entryY=1;entryDx=0;entryDy=0;" parent="1" source="YmvjijiLY2P1SuIOJziN-4" target="YmvjijiLY2P1SuIOJziN-7" edge="1">
          <mxGeometry relative="1" as="geometry" />
        </mxCell>
        <mxCell id="YmvjijiLY2P1SuIOJziN-14" style="edgeStyle=orthogonalEdgeStyle;rounded=0;orthogonalLoop=1;jettySize=auto;html=1;exitX=0;exitY=0.5;exitDx=0;exitDy=0;entryX=0.5;entryY=1;entryDx=0;entryDy=0;" parent="1" source="YmvjijiLY2P1SuIOJziN-4" target="YmvjijiLY2P1SuIOJziN-6" edge="1">
          <mxGeometry relative="1" as="geometry" />
        </mxCell>
        <mxCell id="YmvjijiLY2P1SuIOJziN-4" value="Location" style="ellipse;whiteSpace=wrap;html=1;align=center;" parent="1" vertex="1">
          <mxGeometry x="100" y="20" width="100" height="40" as="geometry" />
        </mxCell>
        <mxCell id="YmvjijiLY2P1SuIOJziN-5" value="building number" style="ellipse;whiteSpace=wrap;html=1;align=center;" parent="1" vertex="1">
          <mxGeometry x="230" y="-50" width="70" height="40" as="geometry" />
        </mxCell>
        <mxCell id="YmvjijiLY2P1SuIOJziN-6" value="city" style="ellipse;whiteSpace=wrap;html=1;align=center;" parent="1" vertex="1">
          <mxGeometry x="-20" y="-50" width="70" height="40" as="geometry" />
        </mxCell>
        <mxCell id="YmvjijiLY2P1SuIOJziN-7" value="street" style="ellipse;whiteSpace=wrap;html=1;align=center;" parent="1" vertex="1">
          <mxGeometry x="145" y="-50" width="70" height="40" as="geometry" />
        </mxCell>
        <mxCell id="YmvjijiLY2P1SuIOJziN-8" value="area" style="ellipse;whiteSpace=wrap;html=1;align=center;" parent="1" vertex="1">
          <mxGeometry x="60" y="-50" width="70" height="40" as="geometry" />
        </mxCell>
        <mxCell id="YmvjijiLY2P1SuIOJziN-9" value="Floor Number" style="ellipse;whiteSpace=wrap;html=1;align=center;" parent="1" vertex="1">
          <mxGeometry x="310" y="-50" width="70" height="40" as="geometry" />
        </mxCell>
        <mxCell id="YmvjijiLY2P1SuIOJziN-13" style="edgeStyle=orthogonalEdgeStyle;rounded=0;orthogonalLoop=1;jettySize=auto;html=1;exitX=0;exitY=0;exitDx=0;exitDy=0;entryX=0.411;entryY=1.04;entryDx=0;entryDy=0;entryPerimeter=0;" parent="1" source="YmvjijiLY2P1SuIOJziN-4" target="YmvjijiLY2P1SuIOJziN-8" edge="1">
          <mxGeometry relative="1" as="geometry" />
        </mxCell>
        <mxCell id="YmvjijiLY2P1SuIOJziN-18" style="edgeStyle=orthogonalEdgeStyle;rounded=0;orthogonalLoop=1;jettySize=auto;html=1;exitX=0.5;exitY=0;exitDx=0;exitDy=0;entryX=0.5;entryY=1;entryDx=0;entryDy=0;" parent="1" source="YmvjijiLY2P1SuIOJziN-21" target="YmvjijiLY2P1SuIOJziN-24" edge="1">
          <mxGeometry relative="1" as="geometry" />
        </mxCell>
        <mxCell id="YmvjijiLY2P1SuIOJziN-20" style="edgeStyle=orthogonalEdgeStyle;rounded=0;orthogonalLoop=1;jettySize=auto;html=1;exitX=0.25;exitY=1;exitDx=0;exitDy=0;entryX=0.5;entryY=0;entryDx=0;entryDy=0;" parent="1" source="YmvjijiLY2P1SuIOJziN-21" target="YmvjijiLY2P1SuIOJziN-22" edge="1">
          <mxGeometry relative="1" as="geometry" />
        </mxCell>
        <mxCell id="YmvjijiLY2P1SuIOJziN-25" style="edgeStyle=orthogonalEdgeStyle;rounded=0;orthogonalLoop=1;jettySize=auto;html=1;exitX=1;exitY=0.25;exitDx=0;exitDy=0;entryX=0;entryY=0.5;entryDx=0;entryDy=0;" parent="1" source="YmvjijiLY2P1SuIOJziN-21" target="YmvjijiLY2P1SuIOJziN-23" edge="1">
          <mxGeometry relative="1" as="geometry" />
        </mxCell>
        <mxCell id="YmvjijiLY2P1SuIOJziN-69" style="edgeStyle=orthogonalEdgeStyle;rounded=0;orthogonalLoop=1;jettySize=auto;html=1;exitX=0;exitY=0.5;exitDx=0;exitDy=0;entryX=1;entryY=0.5;entryDx=0;entryDy=0;shape=link;" parent="1" source="YmvjijiLY2P1SuIOJziN-21" target="YmvjijiLY2P1SuIOJziN-67" edge="1">
          <mxGeometry relative="1" as="geometry" />
        </mxCell>
        <mxCell id="YmvjijiLY2P1SuIOJziN-80" style="edgeStyle=orthogonalEdgeStyle;rounded=0;orthogonalLoop=1;jettySize=auto;html=1;exitX=0.5;exitY=1;exitDx=0;exitDy=0;entryX=1;entryY=0.5;entryDx=0;entryDy=0;" parent="1" source="YmvjijiLY2P1SuIOJziN-21" target="YmvjijiLY2P1SuIOJziN-77" edge="1">
          <mxGeometry relative="1" as="geometry" />
        </mxCell>
        <mxCell id="YmvjijiLY2P1SuIOJziN-81" value="M" style="edgeLabel;html=1;align=center;verticalAlign=middle;resizable=0;points=[];" parent="YmvjijiLY2P1SuIOJziN-80" vertex="1" connectable="0">
          <mxGeometry x="0.813" y="-3" relative="1" as="geometry">
            <mxPoint y="3" as="offset" />
          </mxGeometry>
        </mxCell>
        <mxCell id="DbGPBKjgbKyn3m8IMXuP-4" style="edgeStyle=orthogonalEdgeStyle;rounded=0;orthogonalLoop=1;jettySize=auto;html=1;exitX=1;exitY=0.75;exitDx=0;exitDy=0;entryX=0;entryY=0.5;entryDx=0;entryDy=0;" parent="1" source="YmvjijiLY2P1SuIOJziN-21" target="DbGPBKjgbKyn3m8IMXuP-3" edge="1">
          <mxGeometry relative="1" as="geometry" />
        </mxCell>
        <mxCell id="DbGPBKjgbKyn3m8IMXuP-8" style="edgeStyle=orthogonalEdgeStyle;rounded=0;orthogonalLoop=1;jettySize=auto;html=1;exitX=0;exitY=0;exitDx=0;exitDy=0;entryX=0.5;entryY=1;entryDx=0;entryDy=0;" parent="1" source="YmvjijiLY2P1SuIOJziN-21" target="DbGPBKjgbKyn3m8IMXuP-6" edge="1">
          <mxGeometry relative="1" as="geometry" />
        </mxCell>
        <mxCell id="YmvjijiLY2P1SuIOJziN-21" value="Test" style="whiteSpace=wrap;html=1;align=center;" parent="1" vertex="1">
          <mxGeometry x="690" y="80" width="100" height="40" as="geometry" />
        </mxCell>
        <mxCell id="YmvjijiLY2P1SuIOJziN-22" value="Code" style="ellipse;whiteSpace=wrap;html=1;align=center;fontStyle=4;" parent="1" vertex="1">
          <mxGeometry x="750" y="150" width="100" height="40" as="geometry" />
        </mxCell>
        <mxCell id="YmvjijiLY2P1SuIOJziN-23" value="Name" style="ellipse;whiteSpace=wrap;html=1;align=center;" parent="1" vertex="1">
          <mxGeometry x="830" y="40" width="100" height="40" as="geometry" />
        </mxCell>
        <mxCell id="YmvjijiLY2P1SuIOJziN-24" value="Cost" style="ellipse;whiteSpace=wrap;html=1;align=center;" parent="1" vertex="1">
          <mxGeometry x="720" width="100" height="40" as="geometry" />
        </mxCell>
        <mxCell id="YmvjijiLY2P1SuIOJziN-44" style="edgeStyle=orthogonalEdgeStyle;rounded=0;orthogonalLoop=1;jettySize=auto;html=1;exitX=0;exitY=0.5;exitDx=0;exitDy=0;entryX=1;entryY=0.5;entryDx=0;entryDy=0;" parent="1" source="YmvjijiLY2P1SuIOJziN-50" target="YmvjijiLY2P1SuIOJziN-52" edge="1">
          <mxGeometry relative="1" as="geometry" />
        </mxCell>
        <mxCell id="YmvjijiLY2P1SuIOJziN-48" style="edgeStyle=orthogonalEdgeStyle;rounded=0;orthogonalLoop=1;jettySize=auto;html=1;exitX=1;exitY=1;exitDx=0;exitDy=0;entryX=0.5;entryY=0;entryDx=0;entryDy=0;" parent="1" source="YmvjijiLY2P1SuIOJziN-50" target="YmvjijiLY2P1SuIOJziN-56" edge="1">
          <mxGeometry relative="1" as="geometry" />
        </mxCell>
        <mxCell id="YmvjijiLY2P1SuIOJziN-49" style="edgeStyle=orthogonalEdgeStyle;rounded=0;orthogonalLoop=1;jettySize=auto;html=1;exitX=0;exitY=1;exitDx=0;exitDy=0;entryX=1;entryY=0;entryDx=0;entryDy=0;" parent="1" source="YmvjijiLY2P1SuIOJziN-50" target="YmvjijiLY2P1SuIOJziN-51" edge="1">
          <mxGeometry relative="1" as="geometry" />
        </mxCell>
        <mxCell id="YmvjijiLY2P1SuIOJziN-64" style="edgeStyle=orthogonalEdgeStyle;rounded=0;orthogonalLoop=1;jettySize=auto;html=1;exitX=1;exitY=0.5;exitDx=0;exitDy=0;entryX=0;entryY=0.5;entryDx=0;entryDy=0;" parent="1" source="YmvjijiLY2P1SuIOJziN-50" target="YmvjijiLY2P1SuIOJziN-59" edge="1">
          <mxGeometry relative="1" as="geometry" />
        </mxCell>
        <mxCell id="YmvjijiLY2P1SuIOJziN-116" style="edgeStyle=orthogonalEdgeStyle;rounded=0;orthogonalLoop=1;jettySize=auto;html=1;exitX=0.25;exitY=0;exitDx=0;exitDy=0;entryX=0.5;entryY=1;entryDx=0;entryDy=0;shape=link;" parent="1" source="YmvjijiLY2P1SuIOJziN-50" target="YmvjijiLY2P1SuIOJziN-114" edge="1">
          <mxGeometry relative="1" as="geometry" />
        </mxCell>
        <mxCell id="YmvjijiLY2P1SuIOJziN-118" value="&lt;font style=&quot;font-size: 14px;&quot;&gt;M&lt;/font&gt;" style="edgeLabel;html=1;align=center;verticalAlign=middle;resizable=0;points=[];" parent="YmvjijiLY2P1SuIOJziN-116" vertex="1" connectable="0">
          <mxGeometry x="0.8014" y="-2" relative="1" as="geometry">
            <mxPoint x="-2" y="-5" as="offset" />
          </mxGeometry>
        </mxCell>
        <mxCell id="YmvjijiLY2P1SuIOJziN-120" style="edgeStyle=orthogonalEdgeStyle;rounded=0;orthogonalLoop=1;jettySize=auto;html=1;exitX=1;exitY=0;exitDx=0;exitDy=0;entryX=0.5;entryY=1;entryDx=0;entryDy=0;shape=link;" parent="1" source="YmvjijiLY2P1SuIOJziN-50" target="YmvjijiLY2P1SuIOJziN-119" edge="1">
          <mxGeometry relative="1" as="geometry">
            <Array as="points">
              <mxPoint x="240" y="510" />
              <mxPoint x="240" y="500" />
              <mxPoint x="280" y="500" />
            </Array>
          </mxGeometry>
        </mxCell>
        <mxCell id="YmvjijiLY2P1SuIOJziN-129" style="edgeStyle=orthogonalEdgeStyle;rounded=0;orthogonalLoop=1;jettySize=auto;html=1;exitX=0.5;exitY=0;exitDx=0;exitDy=0;entryX=0.5;entryY=1;entryDx=0;entryDy=0;" parent="1" source="YmvjijiLY2P1SuIOJziN-50" target="YmvjijiLY2P1SuIOJziN-127" edge="1">
          <mxGeometry relative="1" as="geometry">
            <Array as="points">
              <mxPoint x="170" y="425" />
              <mxPoint x="160" y="425" />
              <mxPoint x="160" y="360" />
              <mxPoint x="140" y="360" />
            </Array>
          </mxGeometry>
        </mxCell>
        <mxCell id="YmvjijiLY2P1SuIOJziN-133" value="1" style="edgeLabel;html=1;align=center;verticalAlign=middle;resizable=0;points=[];" parent="YmvjijiLY2P1SuIOJziN-129" vertex="1" connectable="0">
          <mxGeometry x="0.6882" y="2" relative="1" as="geometry">
            <mxPoint x="8" y="-12" as="offset" />
          </mxGeometry>
        </mxCell>
        <mxCell id="YmvjijiLY2P1SuIOJziN-50" value="&lt;span style=&quot;font-size:14.0pt;line-height:107%;&lt;br/&gt;font-family:&amp;quot;Arial&amp;quot;,sans-serif;mso-ascii-theme-font:minor-bidi;mso-fareast-font-family:&lt;br/&gt;Calibri;mso-fareast-theme-font:minor-latin;mso-hansi-theme-font:minor-bidi;&lt;br/&gt;mso-bidi-theme-font:minor-bidi;mso-ansi-language:EN-US;mso-fareast-language:&lt;br/&gt;EN-US;mso-bidi-language:AR-EG&quot;&gt;Employee&lt;/span&gt;" style="whiteSpace=wrap;html=1;align=center;" parent="1" vertex="1">
          <mxGeometry x="120" y="510" width="100" height="40" as="geometry" />
        </mxCell>
        <mxCell id="YmvjijiLY2P1SuIOJziN-51" value="ID" style="ellipse;whiteSpace=wrap;html=1;align=center;fontStyle=4;" parent="1" vertex="1">
          <mxGeometry x="25" y="560" width="70" height="40" as="geometry" />
        </mxCell>
        <mxCell id="YmvjijiLY2P1SuIOJziN-52" value="FullName" style="ellipse;whiteSpace=wrap;html=1;align=center;" parent="1" vertex="1">
          <mxGeometry x="10" y="510" width="60" height="40" as="geometry" />
        </mxCell>
        <mxCell id="YmvjijiLY2P1SuIOJziN-56" value="&lt;span style=&quot;line-height: 107%; font-family: Arial, sans-serif;&quot;&gt;&lt;font style=&quot;font-size: 13px;&quot;&gt;Team&lt;/font&gt;&lt;/span&gt;" style="ellipse;whiteSpace=wrap;html=1;align=center;" parent="1" vertex="1">
          <mxGeometry x="200" y="580" width="70" height="40" as="geometry" />
        </mxCell>
        <mxCell id="YmvjijiLY2P1SuIOJziN-57" value="Salary" style="ellipse;whiteSpace=wrap;html=1;align=center;" parent="1" vertex="1">
          <mxGeometry x="110" y="580" width="80" height="40" as="geometry" />
        </mxCell>
        <mxCell id="YmvjijiLY2P1SuIOJziN-58" style="edgeStyle=orthogonalEdgeStyle;rounded=0;orthogonalLoop=1;jettySize=auto;html=1;exitX=0.5;exitY=1;exitDx=0;exitDy=0;entryX=0.76;entryY=0;entryDx=0;entryDy=0;entryPerimeter=0;" parent="1" source="YmvjijiLY2P1SuIOJziN-50" target="YmvjijiLY2P1SuIOJziN-57" edge="1">
          <mxGeometry relative="1" as="geometry" />
        </mxCell>
        <mxCell id="YmvjijiLY2P1SuIOJziN-62" style="edgeStyle=orthogonalEdgeStyle;rounded=0;orthogonalLoop=1;jettySize=auto;html=1;exitX=0.945;exitY=0.237;exitDx=0;exitDy=0;entryX=0;entryY=0.5;entryDx=0;entryDy=0;exitPerimeter=0;" parent="1" source="YmvjijiLY2P1SuIOJziN-59" target="YmvjijiLY2P1SuIOJziN-61" edge="1">
          <mxGeometry relative="1" as="geometry">
            <mxPoint x="300.0022942185699" y="435.7128283725008" as="sourcePoint" />
            <Array as="points">
              <mxPoint x="316" y="520" />
              <mxPoint x="326" y="520" />
              <mxPoint x="326" y="510" />
            </Array>
          </mxGeometry>
        </mxCell>
        <mxCell id="YmvjijiLY2P1SuIOJziN-63" style="edgeStyle=orthogonalEdgeStyle;rounded=0;orthogonalLoop=1;jettySize=auto;html=1;exitX=1;exitY=0.5;exitDx=0;exitDy=0;entryX=0;entryY=0.5;entryDx=0;entryDy=0;" parent="1" source="YmvjijiLY2P1SuIOJziN-59" target="YmvjijiLY2P1SuIOJziN-60" edge="1">
          <mxGeometry relative="1" as="geometry">
            <mxPoint x="300.0022942185699" y="464.287171627499" as="sourcePoint" />
          </mxGeometry>
        </mxCell>
        <mxCell id="YmvjijiLY2P1SuIOJziN-59" value="&lt;span style=&quot;line-height: 107%; font-family: Arial, sans-serif;&quot;&gt;&lt;font style=&quot;font-size: 13px;&quot;&gt;Duration&lt;/font&gt;&lt;/span&gt;" style="ellipse;whiteSpace=wrap;html=1;align=center;" parent="1" vertex="1">
          <mxGeometry x="250" y="520" width="70" height="40" as="geometry" />
        </mxCell>
        <mxCell id="YmvjijiLY2P1SuIOJziN-60" value="&lt;span style=&quot;line-height: 107%; font-family: Arial, sans-serif;&quot;&gt;&lt;font style=&quot;font-size: 13px;&quot;&gt;Start Time&lt;/font&gt;&lt;/span&gt;" style="ellipse;whiteSpace=wrap;html=1;align=center;" parent="1" vertex="1">
          <mxGeometry x="345.51" y="540" width="70" height="40" as="geometry" />
        </mxCell>
        <mxCell id="YmvjijiLY2P1SuIOJziN-61" value="&lt;span style=&quot;line-height: 107%; font-family: Arial, sans-serif;&quot;&gt;&lt;font style=&quot;font-size: 13px;&quot;&gt;End Time&lt;/font&gt;&lt;/span&gt;" style="ellipse;whiteSpace=wrap;html=1;align=center;" parent="1" vertex="1">
          <mxGeometry x="355" y="490" width="70" height="40" as="geometry" />
        </mxCell>
        <mxCell id="YmvjijiLY2P1SuIOJziN-67" value="Provide" style="shape=rhombus;perimeter=rhombusPerimeter;whiteSpace=wrap;html=1;align=center;" parent="1" vertex="1">
          <mxGeometry x="440" y="80" width="120" height="60" as="geometry" />
        </mxCell>
        <mxCell id="YmvjijiLY2P1SuIOJziN-88" style="edgeStyle=orthogonalEdgeStyle;rounded=0;orthogonalLoop=1;jettySize=auto;html=1;exitX=0;exitY=0;exitDx=0;exitDy=0;entryX=0.5;entryY=1;entryDx=0;entryDy=0;" parent="1" source="YmvjijiLY2P1SuIOJziN-77" target="YmvjijiLY2P1SuIOJziN-86" edge="1">
          <mxGeometry relative="1" as="geometry" />
        </mxCell>
        <mxCell id="YmvjijiLY2P1SuIOJziN-77" value="perform" style="shape=rhombus;perimeter=rhombusPerimeter;whiteSpace=wrap;html=1;align=center;" parent="1" vertex="1">
          <mxGeometry x="450" y="230" width="120" height="60" as="geometry" />
        </mxCell>
        <mxCell id="YmvjijiLY2P1SuIOJziN-85" value="Time" style="ellipse;whiteSpace=wrap;html=1;align=center;" parent="1" vertex="1">
          <mxGeometry x="530" y="180" width="60" height="40" as="geometry" />
        </mxCell>
        <mxCell id="YmvjijiLY2P1SuIOJziN-86" value="Date" style="ellipse;whiteSpace=wrap;html=1;align=center;" parent="1" vertex="1">
          <mxGeometry x="420" y="180" width="60" height="40" as="geometry" />
        </mxCell>
        <mxCell id="YmvjijiLY2P1SuIOJziN-87" style="edgeStyle=orthogonalEdgeStyle;rounded=0;orthogonalLoop=1;jettySize=auto;html=1;exitX=1;exitY=0;exitDx=0;exitDy=0;entryX=0.35;entryY=1;entryDx=0;entryDy=0;entryPerimeter=0;" parent="1" source="YmvjijiLY2P1SuIOJziN-77" target="YmvjijiLY2P1SuIOJziN-85" edge="1">
          <mxGeometry relative="1" as="geometry" />
        </mxCell>
        <mxCell id="YmvjijiLY2P1SuIOJziN-89" style="edgeStyle=orthogonalEdgeStyle;rounded=0;orthogonalLoop=1;jettySize=auto;html=1;exitX=0;exitY=0.5;exitDx=0;exitDy=0;entryX=1;entryY=0.5;entryDx=0;entryDy=0;" parent="1" source="YmvjijiLY2P1SuIOJziN-97" target="YmvjijiLY2P1SuIOJziN-99" edge="1">
          <mxGeometry relative="1" as="geometry" />
        </mxCell>
        <mxCell id="YmvjijiLY2P1SuIOJziN-93" style="edgeStyle=orthogonalEdgeStyle;rounded=0;orthogonalLoop=1;jettySize=auto;html=1;exitX=1;exitY=1;exitDx=0;exitDy=0;entryX=0.5;entryY=0;entryDx=0;entryDy=0;" parent="1" source="YmvjijiLY2P1SuIOJziN-97" target="YmvjijiLY2P1SuIOJziN-103" edge="1">
          <mxGeometry relative="1" as="geometry" />
        </mxCell>
        <mxCell id="YmvjijiLY2P1SuIOJziN-94" style="edgeStyle=orthogonalEdgeStyle;rounded=0;orthogonalLoop=1;jettySize=auto;html=1;exitX=0;exitY=1;exitDx=0;exitDy=0;entryX=1;entryY=0;entryDx=0;entryDy=0;" parent="1" source="YmvjijiLY2P1SuIOJziN-97" target="YmvjijiLY2P1SuIOJziN-98" edge="1">
          <mxGeometry relative="1" as="geometry" />
        </mxCell>
        <mxCell id="YmvjijiLY2P1SuIOJziN-106" style="edgeStyle=orthogonalEdgeStyle;rounded=0;orthogonalLoop=1;jettySize=auto;html=1;exitX=0.5;exitY=0;exitDx=0;exitDy=0;entryX=0.5;entryY=1;entryDx=0;entryDy=0;" parent="1" source="YmvjijiLY2P1SuIOJziN-97" target="YmvjijiLY2P1SuIOJziN-77" edge="1">
          <mxGeometry relative="1" as="geometry" />
        </mxCell>
        <mxCell id="YmvjijiLY2P1SuIOJziN-112" value="M" style="edgeLabel;html=1;align=center;verticalAlign=middle;resizable=0;points=[];" parent="YmvjijiLY2P1SuIOJziN-106" vertex="1" connectable="0">
          <mxGeometry x="0.9102" y="2" relative="1" as="geometry">
            <mxPoint as="offset" />
          </mxGeometry>
        </mxCell>
        <mxCell id="YmvjijiLY2P1SuIOJziN-109" style="edgeStyle=orthogonalEdgeStyle;rounded=0;orthogonalLoop=1;jettySize=auto;html=1;exitX=1;exitY=0;exitDx=0;exitDy=0;entryX=0;entryY=1;entryDx=0;entryDy=0;" parent="1" source="YmvjijiLY2P1SuIOJziN-97" target="YmvjijiLY2P1SuIOJziN-101" edge="1">
          <mxGeometry relative="1" as="geometry" />
        </mxCell>
        <mxCell id="YmvjijiLY2P1SuIOJziN-110" style="edgeStyle=orthogonalEdgeStyle;rounded=0;orthogonalLoop=1;jettySize=auto;html=1;exitX=1;exitY=0.75;exitDx=0;exitDy=0;" parent="1" source="YmvjijiLY2P1SuIOJziN-97" target="YmvjijiLY2P1SuIOJziN-102" edge="1">
          <mxGeometry relative="1" as="geometry" />
        </mxCell>
        <mxCell id="YmvjijiLY2P1SuIOJziN-97" value="&lt;span style=&quot;font-size:14.0pt;line-height:107%;&lt;br/&gt;font-family:&amp;quot;Arial&amp;quot;,sans-serif;mso-ascii-theme-font:minor-bidi;mso-fareast-font-family:&lt;br/&gt;Calibri;mso-fareast-theme-font:minor-latin;mso-hansi-theme-font:minor-bidi;&lt;br/&gt;mso-bidi-theme-font:minor-bidi;mso-ansi-language:EN-US;mso-fareast-language:&lt;br/&gt;EN-US;mso-bidi-language:AR-EG&quot;&gt;patient&lt;/span&gt;" style="whiteSpace=wrap;html=1;align=center;" parent="1" vertex="1">
          <mxGeometry x="690" y="500" width="100" height="40" as="geometry" />
        </mxCell>
        <mxCell id="YmvjijiLY2P1SuIOJziN-98" value="ID" style="ellipse;whiteSpace=wrap;html=1;align=center;fontStyle=4;" parent="1" vertex="1">
          <mxGeometry x="595" y="550" width="70" height="40" as="geometry" />
        </mxCell>
        <mxCell id="YmvjijiLY2P1SuIOJziN-99" value="FullName" style="ellipse;whiteSpace=wrap;html=1;align=center;" parent="1" vertex="1">
          <mxGeometry x="580" y="500" width="60" height="40" as="geometry" />
        </mxCell>
        <mxCell id="YmvjijiLY2P1SuIOJziN-100" value="Age" style="ellipse;whiteSpace=wrap;html=1;align=center;" parent="1" vertex="1">
          <mxGeometry x="750" y="430" width="60" height="40" as="geometry" />
        </mxCell>
        <mxCell id="YmvjijiLY2P1SuIOJziN-101" value="Mobile Number" style="ellipse;whiteSpace=wrap;html=1;align=center;" parent="1" vertex="1">
          <mxGeometry x="800" y="450" width="70" height="40" as="geometry" />
        </mxCell>
        <mxCell id="YmvjijiLY2P1SuIOJziN-102" value="Gender" style="ellipse;whiteSpace=wrap;html=1;align=center;" parent="1" vertex="1">
          <mxGeometry x="830" y="490" width="70" height="40" as="geometry" />
        </mxCell>
        <mxCell id="YmvjijiLY2P1SuIOJziN-103" value="&lt;span style=&quot;line-height: 107%; font-family: Arial, sans-serif;&quot;&gt;&lt;font style=&quot;font-size: 13px;&quot;&gt;chronic diseases&lt;/font&gt;&lt;/span&gt;" style="ellipse;whiteSpace=wrap;html=1;align=center;" parent="1" vertex="1">
          <mxGeometry x="770" y="570" width="70" height="40" as="geometry" />
        </mxCell>
        <mxCell id="YmvjijiLY2P1SuIOJziN-104" value="DataOfBirth" style="ellipse;whiteSpace=wrap;html=1;align=center;" parent="1" vertex="1">
          <mxGeometry x="680" y="570" width="80" height="40" as="geometry" />
        </mxCell>
        <mxCell id="YmvjijiLY2P1SuIOJziN-105" style="edgeStyle=orthogonalEdgeStyle;rounded=0;orthogonalLoop=1;jettySize=auto;html=1;exitX=0.5;exitY=1;exitDx=0;exitDy=0;entryX=0.76;entryY=0;entryDx=0;entryDy=0;entryPerimeter=0;" parent="1" source="YmvjijiLY2P1SuIOJziN-97" target="YmvjijiLY2P1SuIOJziN-104" edge="1">
          <mxGeometry relative="1" as="geometry" />
        </mxCell>
        <mxCell id="YmvjijiLY2P1SuIOJziN-108" style="edgeStyle=orthogonalEdgeStyle;rounded=0;orthogonalLoop=1;jettySize=auto;html=1;exitX=0.75;exitY=0;exitDx=0;exitDy=0;entryX=0.3;entryY=1.025;entryDx=0;entryDy=0;entryPerimeter=0;" parent="1" source="YmvjijiLY2P1SuIOJziN-97" target="YmvjijiLY2P1SuIOJziN-100" edge="1">
          <mxGeometry relative="1" as="geometry" />
        </mxCell>
        <mxCell id="YmvjijiLY2P1SuIOJziN-114" value="Serve" style="shape=rhombus;perimeter=rhombusPerimeter;whiteSpace=wrap;html=1;align=center;" parent="1" vertex="1">
          <mxGeometry x="-70" y="280" width="120" height="60" as="geometry" />
        </mxCell>
        <mxCell id="YmvjijiLY2P1SuIOJziN-125" style="edgeStyle=orthogonalEdgeStyle;rounded=0;orthogonalLoop=1;jettySize=auto;html=1;exitX=0;exitY=0.5;exitDx=0;exitDy=0;entryX=0.75;entryY=0;entryDx=0;entryDy=0;" parent="1" source="YmvjijiLY2P1SuIOJziN-119" target="YmvjijiLY2P1SuIOJziN-50" edge="1">
          <mxGeometry relative="1" as="geometry" />
        </mxCell>
        <mxCell id="YmvjijiLY2P1SuIOJziN-119" value="Supervise" style="shape=rhombus;perimeter=rhombusPerimeter;whiteSpace=wrap;html=1;align=center;" parent="1" vertex="1">
          <mxGeometry x="220" y="420" width="120" height="60" as="geometry" />
        </mxCell>
        <mxCell id="YmvjijiLY2P1SuIOJziN-124" value="&lt;font style=&quot;font-size: 15px;&quot;&gt;1&lt;/font&gt;" style="edgeLabel;html=1;align=center;verticalAlign=middle;resizable=0;points=[];" parent="1" vertex="1" connectable="0">
          <mxGeometry x="265" y="500.0009372637959" as="geometry" />
        </mxCell>
        <mxCell id="YmvjijiLY2P1SuIOJziN-126" value="&lt;font style=&quot;font-size: 14px;&quot;&gt;M&lt;/font&gt;" style="edgeLabel;html=1;align=center;verticalAlign=middle;resizable=0;points=[];" parent="1" vertex="1" connectable="0">
          <mxGeometry x="190" y="480.0019047619046" as="geometry" />
        </mxCell>
        <mxCell id="YmvjijiLY2P1SuIOJziN-127" value="Manage" style="shape=rhombus;perimeter=rhombusPerimeter;whiteSpace=wrap;html=1;align=center;" parent="1" vertex="1">
          <mxGeometry x="80" y="280" width="120" height="60" as="geometry" />
        </mxCell>
        <mxCell id="DbGPBKjgbKyn3m8IMXuP-1" value="&lt;font style=&quot;font-size: 17px;&quot;&gt;M&lt;/font&gt;" style="edgeLabel;html=1;align=center;verticalAlign=middle;resizable=0;points=[];" parent="1" vertex="1" connectable="0">
          <mxGeometry x="570.001428571429" y="109.99999999999977" as="geometry" />
        </mxCell>
        <mxCell id="DbGPBKjgbKyn3m8IMXuP-3" value="Condition" style="ellipse;shape=doubleEllipse;margin=3;whiteSpace=wrap;html=1;align=center;" parent="1" vertex="1">
          <mxGeometry x="860" y="90" width="100" height="40" as="geometry" />
        </mxCell>
        <mxCell id="DbGPBKjgbKyn3m8IMXuP-6" value="Duration" style="ellipse;whiteSpace=wrap;html=1;align=center;" parent="1" vertex="1">
          <mxGeometry x="640" y="10" width="70" height="40" as="geometry" />
        </mxCell>
      </root>
    </mxGraphModel>
  </diagram>
</mxfile>
